<?xml version="1.0" standalone="no"?>
<!DOCTYPE svg PUBLIC "-//W3C//DTD SVG 20010904//EN"
 "http://www.w3.org/TR/2001/REC-SVG-20010904/DTD/svg10.dtd">
<svg version="1.0" xmlns="http://www.w3.org/2000/svg"
 width="204.000000pt" height="204.000000pt" viewBox="0 0 204.000000 204.000000"
 preserveAspectRatio="xMidYMid meet">
<metadata>
Created by potrace 1.14, written by Peter Selinger 2001-2017
</metadata>
<g transform="translate(0.000000,204.000000) scale(0.100000,-0.100000)"
fill="#000000" stroke="none">
<path d="M774 2002 c-100 -102 -105 -109 -101 -181 l3 -66 -111 0 -110 0 0
-80 0 -80 570 0 570 0 2 75 c1 41 -3 77 -7 80 -5 3 -70 5 -144 5 -75 0 -130 3
-122 7 9 5 14 27 14 69 0 65 -5 74 -96 165 -34 34 -72 45 -72 21 0 -15 61 -77
76 -77 6 0 21 -11 33 -24 18 -19 24 -38 26 -84 1 -33 0 -64 -4 -69 -7 -10
-611 -11 -611 -1 0 5 4 8 9 8 5 0 8 25 7 57 -2 61 -6 56 99 147 37 32 39 36
24 51 -14 15 -19 13 -55 -23z"/>
<path d="M459 1523 c0 -10 -1 -200 -1 -423 -2 -459 -1 -463 76 -568 57 -78
139 -149 271 -237 150 -99 188 -119 195 -100 3 8 5 313 4 677 l-1 663 -271 3
c-254 2 -272 1 -273 -15z m357 -556 c1 -326 -1 -437 -10 -437 -14 0 -104 92
-137 140 l-23 34 -1 334 c0 215 4 336 10 338 22 9 141 32 150 30 6 -2 10 -158
11 -439z"/>
<path d="M1048 1248 c-2 -161 -2 -303 0 -315 3 -22 6 -23 180 -25 l177 -3 -1
-101 c0 -92 -2 -106 -26 -140 -30 -46 -118 -134 -133 -134 -7 0 -10 46 -10
133 l0 132 -87 2 c-49 1 -91 -3 -94 -8 -6 -10 -6 -600 0 -607 5 -4 164 90 239
143 144 101 262 235 288 328 12 40 20 391 11 429 -4 16 -23 18 -181 20 l-176
3 0 150 c0 143 1 150 20 149 17 -1 58 -7 120 -18 26 -4 32 -19 30 -83 -1 -37
0 -73 2 -79 6 -17 179 -18 185 -2 2 7 4 81 4 163 l-1 150 -272 3 -272 2 -3
-292z"/>
<path d="M701 139 c-50 -68 -89 -125 -86 -127 5 -6 814 -7 819 -1 3 3 -126
181 -170 232 -14 17 -17 17 -37 3 -57 -41 -184 -108 -204 -108 -13 0 -67 26
-120 58 -54 33 -101 60 -105 62 -3 2 -47 -52 -97 -119z"/>
</g>
</svg>
